<svg width="1621" height="1024" viewBox="0 0 1621 1024" fill="none" xmlns="http://www.w3.org/2000/svg">
<g opacity="0.66">
<path d="M2425.18 754.995C2362.85 785.999 2223.98 939.699 2126 903.815C2028.02 867.93 2056.04 606.981 1954.88 582.75C1853.73 558.52 1742.67 807.855 1640.46 787.509C1538.25 767.163 1561.6 523.306 1464.25 485.091C1366.91 446.876 1270.55 642.292 1173.21 604.077C1075.86 565.862 1093.92 341.428 997.004 301.659C900.084 261.89 804.487 454.51 707.99 413.187C611.493 371.864 640.267 108.117 533.819 103.31C427.37 98.5029 295.018 425.997 197.039 390.112C99.0595 354.228 159.804 -26.8344 63.5192 -68.934C-32.766 -111.034 -196.662 134.499 -265.131 188.034" stroke="#F7F7F7" stroke-width="3" stroke-linecap="round"/>
<path d="M2396.46 673.889C2337.63 707.162 2210.65 863.081 2114.08 833.6C2017.5 804.118 2031.98 550.426 1932.89 532.376C1833.8 514.326 1738.38 761.2 1638.45 746.961C1538.53 732.721 1549.33 495.796 1453.25 464.028C1357.17 432.26 1273.37 626.242 1177.29 594.474C1081.21 562.705 1087.83 344.834 992.085 311.541C896.344 278.249 813.138 469.487 717.731 434.67C622.324 399.854 637.404 143.418 534.133 144.421C430.862 145.425 318.609 468.968 222.031 439.486C125.453 410.005 165.798 38.4879 70.5585 2.90911C-24.6809 -32.6696 -171.436 213.334 -235.119 268.708" stroke="#F7F7F7" stroke-width="3" stroke-linecap="round"/>
<path d="M2363.51 596.996C2308.24 632.202 2193.02 789.328 2098.19 765.986C2003.37 742.644 2005.06 497.136 1908.36 484.955C1811.67 472.775 1731.37 715.98 1634.05 707.519C1536.73 699.059 1535.68 469.921 1441.23 444.347C1346.78 418.773 1275.15 610.338 1180.7 584.764C1086.25 559.19 1082.07 348.653 987.873 321.591C893.674 294.529 822.493 483.416 728.544 454.866C634.594 426.315 636.731 178.128 536.915 184.549C437.099 190.971 344.251 509.031 249.428 485.689C154.604 462.347 175.588 101.803 81.7635 72.5089C-12.0612 43.2144 -142.036 288.291 -200.931 345.076" stroke="#F7F7F7" stroke-width="3" stroke-linecap="round"/>
<path d="M2326.65 524.672C2274.97 561.456 2171.31 718.726 2078.57 701.237C1985.84 683.747 1975.52 447.371 1881.51 440.722C1787.51 434.073 1721.79 672.356 1627.37 669.321C1532.94 666.285 1520.77 445.808 1428.28 426.151C1335.8 406.493 1275.93 594.622 1183.45 574.965C1090.96 555.307 1076.68 352.897 984.364 331.795C892.05 310.692 832.483 496.219 740.338 473.671C648.192 451.123 638.175 212.145 542.065 223.563C445.955 234.981 371.744 545.966 279.008 528.477C186.272 510.988 188.993 162.884 96.9314 139.614C4.87005 116.343 -108.757 359.034 -162.886 416.777" stroke="#F7F7F7" stroke-width="3" stroke-linecap="round"/>
<path d="M2286.19 457.355C2238.12 495.326 2145.79 651.566 2055.45 639.614C1965.11 627.663 1943.6 401.476 1852.57 399.987C1761.54 398.499 1709.76 630.472 1618.5 632.471C1527.24 634.471 1504.72 423.63 1414.51 409.586C1324.31 395.542 1275.74 579.103 1185.54 565.059C1095.34 551.015 1071.66 357.613 981.55 342.173C891.441 326.734 843.032 507.784 753.015 490.95C662.999 474.115 641.651 245.417 549.469 261.368C457.287 277.319 400.881 579.466 310.541 567.515C220.202 555.563 205.811 221.532 115.84 204C25.8695 186.468 -71.9101 425.161 -121.318 483.361" stroke="#F7F7F7" stroke-width="3" stroke-linecap="round"/>
<path d="M2242.49 395.732C2198.03 434.415 2116.72 588.171 2029.07 581.409C1941.41 574.647 1909.55 360.022 1821.74 363.275C1733.94 366.528 1695.45 590.433 1607.59 597.024C1519.74 603.616 1487.65 403.68 1400.03 394.915C1312.4 386.15 1274.61 563.717 1186.99 554.953C1099.36 546.188 1067.03 362.943 979.421 352.843C891.815 342.743 854.067 517.907 766.481 506.471C678.896 495.036 647.069 278.007 559.01 297.952C470.95 317.897 431.452 608.97 343.796 602.208C256.14 595.446 225.836 277.598 138.26 265.495C50.6848 253.392 -31.8109 486.067 -76.5665 544.112" stroke="#F7F7F7" stroke-width="3" stroke-linecap="round"/>
<path d="M2193.51 326.393C2152.73 369.944 2082.26 537.668 1997.73 535.439C1913.2 533.21 1871.95 307.286 1787.77 315.692C1703.59 324.097 1677.74 563.834 1593.67 575.785C1509.61 587.735 1468.87 377.41 1384.27 373.053C1299.67 368.697 1272.19 559.231 1187.59 554.874C1102.99 550.518 1062.84 357.917 978.187 352.143C893.539 346.369 865.975 534.35 781.28 527.158C696.585 519.966 655.245 291.49 571.652 317.62C488.06 343.75 464.566 654.811 380.036 652.582C295.505 650.352 250.624 314.82 165.905 306.919C81.187 299.018 13.4959 550.544 -26.6118 614.656" stroke="#F7F7F7" stroke-width="3" stroke-linecap="round"/>
<path d="M2144.45 271.015C2107.2 314.709 2047.03 478.156 1965.67 480.75C1884.32 483.344 1834.48 270.777 1753.95 283.465C1673.41 296.154 1659.36 525.601 1579.09 541.655C1498.83 557.708 1450.19 359.947 1368.67 360.522C1287.16 361.097 1269.32 543.84 1187.8 544.415C1106.29 544.99 1059.02 364.053 977.388 363.282C895.761 362.511 877.731 542.831 795.995 540.714C714.259 538.597 664.232 323.607 585.056 353.12C505.88 382.633 497.306 679.783 415.952 682.377C334.597 684.97 276.344 368.361 194.554 365.571C112.764 362.781 59.0237 605.773 23.3579 668.985" stroke="#F7F7F7" stroke-width="3" stroke-linecap="round"/>
<path d="M2093.19 221.071C2059.43 264.813 2009.11 424.066 1931.14 431.036C1853.17 438.006 1795.67 237.971 1718.95 254.527C1642.22 271.082 1639.18 490.75 1562.87 510.501C1486.56 530.251 1430.88 344.275 1352.66 349.328C1274.45 354.381 1265.65 529.702 1187.43 534.755C1109.22 539.808 1055.61 369.807 977.225 373.582C898.843 377.357 889.746 550.378 811.198 552.875C732.651 555.371 674.846 353.037 600.196 385.567C525.545 418.098 530.843 702.051 452.876 709.021C374.908 715.991 304.583 417.165 225.953 419.023C147.322 420.881 106.804 655.665 75.4485 717.939" stroke="#F7F7F7" stroke-width="3" stroke-linecap="round"/>
<path d="M2040.1 176.478C2009.75 220.091 1968.82 374.89 1894.43 385.822C1820.03 396.755 1755.76 208.939 1683 228.954C1610.23 248.969 1617.38 458.852 1545.16 481.895C1472.94 504.938 1411.06 330.443 1336.34 339.559C1261.62 348.675 1261.22 516.536 1186.49 525.652C1111.77 534.768 1052.61 375.411 977.676 383.316C902.737 391.221 901.944 556.902 826.788 563.596C751.631 570.29 686.971 380.294 616.925 415.447C546.879 450.6 564.962 721.397 490.567 732.33C416.171 743.262 335.093 461.835 259.828 467.923C184.563 474.011 156.489 700.381 129.294 761.554" stroke="#F7F7F7" stroke-width="3" stroke-linecap="round"/>
<path d="M1985.54 137.225C1958.51 180.503 1926.48 330.464 1855.81 344.956C1785.15 359.448 1715.03 183.716 1646.34 206.787C1577.66 229.858 1594.14 429.766 1526.11 455.696C1458.08 481.627 1390.87 318.477 1319.81 331.253C1248.75 344.03 1256.08 504.246 1185.02 517.022C1113.96 529.798 1050.04 380.947 978.716 392.579C907.391 404.212 914.25 562.369 842.661 572.858C771.073 583.346 700.484 405.555 635.092 442.924C569.701 480.293 599.448 737.736 528.783 752.229C458.118 766.721 367.619 502.569 295.899 512.486C224.179 522.403 207.729 739.965 184.527 799.828" stroke="#F7F7F7" stroke-width="3" stroke-linecap="round"/>
<path d="M1929.88 103.31C1906.07 146.035 1882.39 290.738 1815.59 308.39C1748.78 326.041 1673.74 162.315 1609.22 188.038C1544.7 213.761 1569.65 403.446 1505.89 431.859C1442.13 460.272 1370.43 308.384 1303.17 324.421C1235.91 340.459 1250.29 492.801 1183.03 508.838C1115.77 524.876 1047.88 386.439 980.317 401.401C912.751 416.362 926.586 566.767 858.716 580.652C790.846 594.537 715.255 428.874 654.54 468.049C593.825 507.224 634.088 751.04 567.284 768.691C500.479 786.343 401.901 539.43 333.878 552.777C265.856 566.123 260.172 774.428 240.776 832.757" stroke="#F7F7F7" stroke-width="3" stroke-linecap="round"/>
<path d="M1873.49 74.7215C1852.78 116.678 1836.89 255.703 1774.05 276.115C1711.21 296.527 1632.15 144.728 1571.86 172.7C1511.57 200.672 1544.09 379.888 1484.64 410.38C1425.2 440.872 1349.88 300.16 1286.53 319.06C1223.18 337.961 1243.91 482.201 1180.56 501.101C1117.21 520.001 1046.14 391.889 982.453 409.782C918.763 427.674 938.882 570.099 874.853 586.984C810.823 603.868 731.156 450.255 675.111 490.826C619.066 531.398 668.675 761.315 605.835 781.727C542.995 802.139 437.676 572.424 373.477 588.804C309.277 605.185 313.469 803.78 297.678 860.352" stroke="#F7F7F7" stroke-width="3" stroke-linecap="round"/>
<path d="M1816.74 51.4286C1798.98 92.408 1790.29 225.355 1731.49 248.13C1672.69 270.904 1590.53 130.926 1534.5 160.746C1478.47 190.566 1517.65 359.098 1462.55 391.266C1407.44 423.435 1329.35 293.79 1269.99 315.156C1210.64 336.521 1237 472.454 1177.65 493.82C1118.29 515.185 1044.81 397.283 985.09 417.709C925.366 438.135 951.064 572.377 890.971 591.863C830.877 611.35 748.051 469.68 696.641 511.243C645.23 552.807 703.002 768.592 644.202 791.366C585.401 814.141 474.677 601.544 414.399 620.561C354.121 639.577 367.268 828.045 354.866 882.646" stroke="#F7F7F7" stroke-width="3" stroke-linecap="round"/>
<path d="M1759.98 33.3808C1745.03 73.1822 1742.92 199.688 1688.2 224.428C1633.49 249.167 1549.12 120.861 1497.36 152.132C1445.6 183.403 1490.54 341.081 1439.76 374.529C1388.99 407.977 1308.95 289.25 1253.65 312.684C1198.34 336.117 1229.61 463.577 1174.31 487.01C1119.01 510.444 1043.89 402.602 988.195 425.165C932.499 447.728 963.061 573.62 906.972 595.311C850.882 617.003 765.801 487.129 718.964 529.286C672.127 571.443 736.867 772.924 682.155 797.663C627.444 822.403 512.635 626.781 456.348 648.037C400.061 669.294 421.223 847.266 411.979 899.695" stroke="#F7F7F7" stroke-width="3" stroke-linecap="round"/>
<path d="M1703.57 20.5041C1691.26 58.9385 1695.09 178.678 1644.49 204.989C1593.89 231.301 1508.19 114.468 1460.68 146.798C1413.17 179.129 1462.93 325.838 1416.46 360.174C1369.98 394.51 1288.81 286.505 1237.59 311.613C1186.37 336.72 1221.82 455.583 1170.6 480.69C1119.38 505.798 1043.37 407.824 991.733 432.129C940.1 456.434 974.805 573.852 922.76 597.354C870.715 620.857 784.266 502.58 741.915 544.941C699.564 587.303 770.075 774.378 719.473 800.689C668.872 827 551.279 648.134 499.027 671.236C446.776 694.337 474.991 861.505 468.665 911.575" stroke="#F7F7F7" stroke-width="3" stroke-linecap="round"/>
<path d="M1647.85 12.7009C1638.01 49.5927 1647.14 162.288 1600.64 189.781C1554.15 217.274 1467.97 111.664 1424.66 144.668C1381.36 177.672 1435.03 313.359 1392.79 348.2C1350.55 383.041 1269.05 285.513 1221.92 311.904C1174.78 338.295 1213.67 448.486 1166.54 474.877C1119.4 501.268 1043.23 412.925 995.667 438.581C948.105 464.237 986.23 573.105 938.243 598.027C890.255 622.948 803.307 516.016 765.327 558.204C727.347 600.393 802.436 773.038 755.939 800.532C709.442 828.025 590.342 665.617 542.141 690.171C493.941 714.725 528.236 870.845 524.577 918.391" stroke="#F7F7F7" stroke-width="3" stroke-linecap="round"/>
<path d="M1593.17 9.85077C1585.62 45.0384 1599.37 150.46 1556.95 178.751C1514.52 207.043 1428.7 112.348 1389.53 145.649C1350.36 178.951 1407.02 303.627 1368.93 338.598C1330.85 373.569 1249.79 286.222 1206.72 313.512C1163.64 340.801 1205.25 442.297 1162.17 469.587C1119.1 496.876 1043.47 417.879 999.957 444.501C956.448 471.122 997.271 571.416 953.328 597.369C909.385 623.323 822.778 527.425 789.032 569.077C755.285 610.728 833.768 769.004 791.344 797.296C748.92 825.587 629.555 679.256 585.395 704.875C541.235 730.494 580.631 875.395 579.377 920.268" stroke="#F7F7F7" stroke-width="3" stroke-linecap="round"/>
<path d="M1539.85 11.8098C1534.4 45.1474 1552.1 143.117 1513.69 171.831C1475.28 200.544 1390.62 116.402 1355.48 149.635C1320.35 182.868 1379.09 296.609 1345.05 331.348C1311 366.087 1231.14 288.574 1192.08 316.383C1153.01 344.193 1196.6 437.025 1157.54 464.835C1118.47 492.644 1044.07 422.663 1004.57 449.87C965.065 477.077 1007.87 568.824 967.931 595.429C927.993 622.034 842.54 536.807 812.864 577.572C783.188 618.337 863.897 762.387 825.487 791.1C787.078 819.814 668.655 689.094 628.498 715.397C588.342 741.7 631.854 875.281 632.737 917.356" stroke="#F7F7F7" stroke-width="3" stroke-linecap="round"/>
<path d="M1488.21 18.4115C1484.66 49.7695 1505.63 140.161 1471.15 168.93C1436.67 197.699 1353.94 123.693 1322.72 156.504C1291.5 189.314 1351.43 292.262 1321.3 326.42C1291.16 360.578 1213.2 292.499 1178.07 320.46C1142.94 348.421 1187.8 432.672 1152.67 460.633C1117.54 488.594 1045.02 427.251 1009.45 454.673C973.887 482.095 1017.96 565.375 981.965 592.259C945.966 619.142 862.447 544.166 836.658 583.712C810.869 623.258 892.654 753.31 858.176 782.079C823.698 810.848 707.379 695.191 671.163 721.805C634.948 748.418 681.595 870.655 684.34 909.826" stroke="#F7F7F7" stroke-width="3" stroke-linecap="round"/>
<path d="M1438.56 29.4682C1436.69 58.7338 1460.25 141.473 1429.6 169.943C1398.94 198.412 1318.87 134.073 1291.42 166.121C1263.97 198.169 1324.22 290.533 1297.84 323.774C1271.46 357.015 1196.08 297.925 1164.79 325.678C1133.49 353.432 1178.92 429.237 1147.62 456.991C1116.32 484.745 1046.29 431.619 1014.57 458.896C982.848 486.172 1027.5 561.119 995.352 587.918C963.202 614.717 882.36 549.519 860.252 587.532C838.143 625.545 919.885 741.91 889.23 770.379C858.576 798.848 745.474 697.624 713.111 724.185C680.747 750.746 729.557 861.686 733.885 897.87" stroke="#F7F7F7" stroke-width="3" stroke-linecap="round"/>
<path d="M1391.19 44.771C1390.79 71.8488 1416.25 146.917 1389.29 174.744C1362.33 202.571 1285.62 147.379 1261.77 178.34C1237.92 209.301 1297.64 291.352 1274.83 323.358C1252.02 355.364 1179.88 304.768 1152.29 331.968C1124.71 359.168 1170 426.717 1142.42 453.917C1114.83 481.117 1047.88 435.746 1019.88 462.528C991.882 489.31 1036.43 556.107 1008.02 582.471C979.6 608.835 902.139 552.89 883.485 589.075C864.831 625.261 945.44 728.333 918.478 756.16C891.516 783.986 782.69 696.489 754.067 722.644C725.443 748.799 775.455 848.567 781.083 881.704" stroke="#F7F7F7" stroke-width="3" stroke-linecap="round"/>
<path d="M1346.37 64.0914C1347.23 88.9039 1373.92 156.336 1350.49 183.191C1327.07 210.047 1254.37 163.433 1233.94 192.999C1213.51 222.566 1271.86 294.64 1252.42 325.11C1232.99 355.58 1164.68 312.942 1140.66 339.255C1116.63 365.569 1161.14 425.103 1137.11 451.416C1113.09 477.73 1049.77 439.609 1025.34 465.561C1000.92 491.514 1044.71 550.397 1019.89 575.988C995.066 601.578 921.647 554.314 906.203 588.398C890.76 622.482 969.184 712.736 945.76 739.591C922.336 766.447 818.787 691.896 793.766 717.306C768.746 742.716 819.016 831.507 825.661 861.56" stroke="#F7F7F7" stroke-width="3" stroke-linecap="round"/>
<path d="M1304.37 87.182C1306.26 109.67 1333.5 169.552 1313.44 195.124C1293.38 220.697 1225.3 182.047 1208.07 209.93C1190.85 237.812 1247.04 300.307 1230.77 328.96C1214.49 357.612 1150.57 322.351 1129.94 347.461C1109.31 372.572 1152.37 424.38 1131.74 449.49C1111.11 474.6 1051.92 443.189 1030.91 467.991C1009.9 492.794 1052.29 544.047 1030.9 568.542C1009.51 593.036 940.747 553.833 928.253 585.565C915.759 617.297 990.99 695.284 970.927 720.857C950.865 746.429 853.529 683.972 831.953 708.313C810.376 732.653 859.984 810.737 867.361 837.691" stroke="#F7F7F7" stroke-width="3" stroke-linecap="round"/>
<path d="M1265.43 113.778C1268.13 133.901 1295.27 186.372 1278.37 210.366C1261.47 234.36 1198.57 203.021 1184.32 228.949C1170.08 254.878 1223.36 308.25 1210 334.824C1196.64 361.397 1137.62 332.895 1120.2 356.502C1102.77 380.109 1143.77 424.53 1126.34 448.138C1108.91 471.745 1054.32 446.467 1036.54 469.816C1018.76 493.165 1059.13 537.122 1040.99 560.213C1022.85 583.304 959.311 551.501 949.49 580.654C939.668 609.807 1010.74 676.154 993.846 700.148C976.948 724.142 886.694 672.863 868.382 695.825C850.069 718.787 898.119 786.504 905.945 810.366" stroke="#F7F7F7" stroke-width="3" stroke-linecap="round"/>
<path d="M1229.77 143.598C1233.05 161.332 1259.44 206.585 1245.5 228.724C1231.55 250.863 1174.33 226.14 1162.82 249.866C1151.31 273.592 1200.95 318.354 1190.26 342.609C1179.56 366.864 1125.92 344.469 1111.48 366.291C1097.05 388.113 1135.4 425.532 1120.96 447.354C1106.53 469.176 1056.95 449.426 1042.19 471.036C1027.43 492.646 1065.19 529.685 1050.11 551.084C1035.02 572.482 977.211 547.379 969.77 573.75C962.33 600.121 1028.34 655.525 1014.39 677.664C1000.44 699.804 918.068 658.725 902.818 680.018C887.568 701.311 933.197 759.068 941.192 779.87" stroke="#F7F7F7" stroke-width="3" stroke-linecap="round"/>
<path d="M1197.6 176.346C1201.23 191.688 1226.26 229.962 1215.02 249.99C1203.79 270.019 1152.71 251.185 1143.68 272.482C1134.65 293.779 1179.97 330.496 1171.67 352.216C1163.37 373.936 1115.52 356.963 1103.85 376.738C1092.17 396.512 1127.31 427.36 1115.64 447.134C1103.96 466.909 1059.78 452.05 1047.81 471.656C1035.85 491.261 1070.46 521.804 1058.2 541.241C1045.93 560.677 994.324 541.539 988.962 564.95C983.6 588.362 1043.69 633.587 1032.46 653.616C1021.22 673.644 947.449 641.734 935.042 661.086C922.634 680.438 965.013 728.709 972.901 746.504" stroke="#F7F7F7" stroke-width="3" stroke-linecap="round"/>
<path d="M1169.1 211.712C1172.86 224.677 1195.92 256.262 1187.15 273.944C1178.38 291.627 1133.84 277.924 1127.01 296.589C1120.18 315.253 1160.55 344.542 1154.36 363.534C1148.18 382.526 1106.48 370.263 1097.33 387.749C1088.17 405.235 1119.57 429.982 1110.41 447.468C1101.25 464.954 1062.79 454.328 1053.37 471.683C1043.96 489.038 1074.89 513.549 1065.22 530.774C1055.54 547.998 1010.53 534.06 1006.94 554.36C1003.34 574.661 1056.72 610.535 1047.95 628.218C1039.18 645.9 974.647 622.078 964.844 639.237C955.041 656.396 993.38 695.718 1000.89 710.581" stroke="#F7F7F7" stroke-width="3" stroke-linecap="round"/>
<path d="M1144.44 249.374C1148.11 259.994 1168.61 285.226 1162.04 300.351C1155.47 315.475 1117.81 306.119 1112.9 321.972C1107.98 337.824 1142.81 360.348 1138.45 376.443C1134.08 392.538 1098.85 384.25 1091.95 399.229C1085.05 414.208 1112.22 433.363 1105.32 448.342C1098.42 463.321 1065.94 456.246 1058.82 471.128C1051.7 486.01 1078.47 504.99 1071.13 519.775C1063.78 534.56 1025.73 525.029 1023.57 542.095C1021.42 559.161 1067.35 586.567 1060.78 601.692C1054.21 616.816 999.486 599.957 992.032 614.693C984.578 629.429 1018.13 660.398 1025 672.426" stroke="#F7F7F7" stroke-width="3" stroke-linecap="round"/>
<path d="M1123.76 288.999C1127.12 297.325 1144.52 316.586 1139.87 328.963C1135.22 341.341 1104.73 335.525 1101.43 348.411C1098.13 361.298 1126.88 377.762 1124.03 390.818C1121.18 403.874 1092.68 398.804 1087.75 411.08C1082.83 423.356 1105.32 437.466 1100.4 449.742C1095.47 462.017 1069.23 457.796 1064.12 470.004C1059.02 482.212 1081.18 496.2 1075.9 508.34C1070.61 520.48 1039.81 514.542 1038.76 528.277C1037.71 542.011 1075.53 561.887 1070.88 574.265C1066.23 586.642 1021.8 575.583 1016.43 587.689C1011.05 599.795 1039.11 623.065 1045.08 632.375" stroke="#F7F7F7" stroke-width="3" stroke-linecap="round"/>
<path d="M1107.2 330.246C1110.02 336.346 1123.8 350.058 1120.77 359.524C1117.74 368.991 1094.66 365.892 1092.67 375.683C1090.68 385.475 1112.85 396.624 1111.2 406.524C1109.55 416.423 1087.99 413.802 1084.76 423.203C1081.52 432.604 1098.92 442.247 1095.68 451.648C1092.45 461.049 1072.61 458.97 1069.24 468.328C1065.87 477.685 1083.01 487.251 1079.5 496.565C1075.99 505.879 1052.67 502.702 1052.4 513.036C1052.12 523.37 1081.23 536.701 1078.2 546.167C1075.18 555.633 1041.45 549.181 1037.87 558.473C1034.29 567.766 1056.21 584.043 1061.03 590.771" stroke="#F7F7F7" stroke-width="3" stroke-linecap="round"/>
<path d="M1094.84 372.765C1096.93 376.724 1106.57 385.352 1104.87 391.768C1103.17 398.183 1087.67 396.964 1086.67 403.558C1085.67 410.152 1100.83 416.766 1100.06 423.42C1099.29 430.074 1084.82 429.117 1082.97 435.497C1081.13 441.876 1093.05 447.662 1091.21 454.042C1089.37 460.421 1076.06 459.763 1074.13 466.118C1072.19 472.474 1083.95 478.217 1081.92 484.549C1079.89 490.881 1064.22 489.619 1064.38 496.511C1064.55 503.404 1084.41 511.217 1082.7 517.632C1081 524.048 1058.29 520.985 1056.21 527.305C1054.13 533.625 1069.29 543.663 1072.74 547.968" stroke="#F7F7F7" stroke-width="3" stroke-linecap="round"/>
<path d="M1086.79 416.2C1087.93 418.121 1092.98 422.167 1092.29 425.418C1091.6 428.669 1083.81 428.484 1083.47 431.806C1083.13 435.127 1090.89 438.016 1090.67 441.36C1090.45 444.705 1083.18 444.623 1082.42 447.86C1081.66 451.097 1087.77 453.661 1087.01 456.899C1086.25 460.136 1079.57 460.171 1078.76 463.398C1077.95 466.626 1083.98 469.173 1083.12 472.392C1082.27 475.61 1074.39 475.408 1074.65 478.847C1074.9 482.285 1085.04 485.644 1084.35 488.896C1083.66 492.147 1072.21 491.238 1071.33 494.452C1070.45 497.666 1078.29 502.265 1080.12 504.321" stroke="#F7F7F7" stroke-width="3" stroke-linecap="round"/>
</g>
</svg>
